<svg version="1.2" xmlns="http://www.w3.org/2000/svg" viewBox="0 0 24 24" width="24" height="24">
	<title>add</title>
	<style>
		.s0 { fill: #ffffff } 
	</style>
	<path class="s0" d="m17 21q-0.4 0-0.7-0.3-0.3-0.3-0.3-0.7v-2h-2q-0.4 0-0.7-0.3-0.3-0.3-0.3-0.7 0-0.5 0.3-0.7 0.3-0.3 0.7-0.3h2v-2q0-0.4 0.3-0.7 0.3-0.3 0.7-0.3 0.4 0 0.7 0.3 0.3 0.3 0.3 0.7v2h2q0.4 0 0.7 0.3 0.3 0.2 0.3 0.7 0 0.4-0.3 0.7-0.3 0.3-0.7 0.3h-2v2q0 0.4-0.3 0.7-0.3 0.3-0.7 0.3zm-12-3q-0.4 0-0.7-0.3-0.3-0.3-0.3-0.7 0-0.4 0.3-0.7 0.3-0.3 0.7-0.3h6.1q-0.1 0.5-0.1 1 0 0.5 0.1 1zm0-4q-0.4 0-0.7-0.3-0.3-0.3-0.3-0.7 0-0.4 0.3-0.7 0.3-0.3 0.7-0.3h8.7q-0.6 0.4-1.1 0.9-0.4 0.5-0.8 1.1zm0-4q-0.4 0-0.7-0.3-0.3-0.3-0.3-0.7 0-0.4 0.3-0.7 0.3-0.3 0.7-0.3h13q0.4 0 0.7 0.3 0.3 0.3 0.3 0.7 0 0.4-0.3 0.7-0.3 0.3-0.7 0.3zm0-4q-0.4 0-0.7-0.3-0.3-0.3-0.3-0.7 0-0.4 0.3-0.7 0.3-0.3 0.7-0.3h13q0.4 0 0.7 0.3 0.3 0.3 0.3 0.7 0 0.4-0.3 0.7-0.3 0.3-0.7 0.3z"/>
</svg>