<svg version="1.2" xmlns="http://www.w3.org/2000/svg" viewBox="0 0 96 96" width="96" height="96">
	<title>bg</title>
	<style>
		.s0 { fill: #bdbbae } 
	</style>
	<path id="Layer copy" class="s0" d="m29.7 34.9l-2.2-3.5q-1.5 0.7-3.1 0.4-1.6-0.1-2.9-1.2-2.2 1.1-4.5 0.4-2.3-0.6-3.8-2.7l-0.6-1.2q-0.5-0.9-0.3-1.9 0.3-1.1 1.2-1.6l2.2-1.4q-0.7-0.9-0.4-2 0.3-1 1.2-1.5l6.6-4.2q0.9-0.6 2-0.4 1 0.3 1.5 1.2l2.2-1.3q0.9-0.7 2-0.4 1 0.3 1.7 1.2l0.6 1q1.3 2.1 0.9 4.6-0.4 2.4-2.3 4 0.2 1.6-0.3 3-0.5 1.5-1.7 2.7l2.2 3.4 3.3-2.1q0.5-0.2 1-0.1 0.6 0.1 0.8 0.5 0.3 0.5 0.1 1-0.1 0.6-0.5 0.8l-8.8 5.6q-0.5 0.3-1.1 0.1-0.5-0.1-0.7-0.6-0.3-0.4-0.2-0.9 0.2-0.5 0.6-0.8zm-10.1-6.4l-2.6-4.1-2.2 1.4 0.7 1q0.6 1.1 1.8 1.6 1 0.4 2.3 0.1zm7.7 0.2q1.4-0.9 1.8-2.5 0.3-1.6-0.5-2.9l-4.1-6.6-6.7 4 4.2 6.7q0.8 1.4 2.3 1.8 1.7 0.2 3-0.5zm3.4-7.1q0.8-0.9 0.8-2.2 0.1-1.1-0.5-2.2l-0.8-1.1-2.2 1.4z"/>
	<path id="Layer copy 2" class="s0" d="m77.3 82.1l-2.2-3.5q-1.5 0.6-3.1 0.3-1.6-0.1-2.9-1.1-2.2 1-4.5 0.4-2.3-0.7-3.8-2.8l-0.6-1.1q-0.5-0.9-0.3-2 0.3-1 1.2-1.5l2.2-1.5q-0.7-0.9-0.4-1.9 0.3-1.1 1.2-1.6l6.6-4.1q0.9-0.7 2-0.4 1 0.2 1.5 1.1l2.2-1.3q0.9-0.6 2-0.4 1 0.3 1.7 1.2l0.6 1.1q1.3 2 0.9 4.5-0.4 2.5-2.3 4 0.2 1.6-0.3 3-0.5 1.6-1.7 2.8l2.2 3.3 3.3-2q0.5-0.3 1-0.2 0.6 0.2 0.8 0.5 0.3 0.6 0.1 1.1-0.1 0.5-0.5 0.8l-8.8 5.6q-0.5 0.2-1.1 0.1-0.5-0.1-0.7-0.7-0.3-0.4-0.2-0.9 0.2-0.5 0.6-0.8zm-10.1-6.3l-2.6-4.2-2.2 1.4 0.7 1.1q0.6 1 1.8 1.5 1 0.4 2.3 0.2zm7.7 0.1q1.4-0.9 1.8-2.5 0.3-1.5-0.5-2.8l-4.1-6.7-6.7 4.1 4.2 6.6q0.8 1.4 2.3 1.8 1.7 0.3 3-0.5zm3.4-7q0.8-0.9 0.8-2.2 0.1-1.2-0.5-2.2l-0.8-1.2-2.2 1.4z"/>
</svg>